<?xml version="1.0" encoding="utf-8"?>
<!-- Generator: Adobe Illustrator 16.0.0, SVG Export Plug-In . SVG Version: 6.00 Build 0)  -->
<!DOCTYPE svg PUBLIC "-//W3C//DTD SVG 1.1//EN" "http://www.w3.org/Graphics/SVG/1.1/DTD/svg11.dtd">
<svg version="1.1"
	 id="Layer_1" sodipodi:version="0.32" inkscape:output_extension="org.inkscape.output.svg.inkscape" inkscape:version="0.45.1" xmlns:rdf="http://www.w3.org/1999/02/22-rdf-syntax-ns#" xmlns:cc="http://web.resource.org/cc/" xmlns:dc="http://purl.org/dc/elements/1.1/" xmlns:svg="http://www.w3.org/2000/svg" xmlns:inkscape="http://www.inkscape.org/namespaces/inkscape" xmlns:sodipodi="http://sodipodi.sourceforge.net/DTD/sodipodi-0.dtd"
	 xmlns="http://www.w3.org/2000/svg" xmlns:xlink="http://www.w3.org/1999/xlink" x="0px" y="0px" width="600px" height="250px"
	 viewBox="-3 -2.6 600 250" enable-background="new -3 -2.6 600 250" xml:space="preserve">
<g id="Layer_x0020_1">
	<g id="g3766">
		<g id="g3768">
			<g id="g3770">
			</g>
		</g>
	</g>
	<g id="g9522">
		<g id="g9524">
			<g id="g9526">
				<g id="g9528">
				</g>
			</g>
		</g>
	</g>
	<g id="g9532">
		<g id="g9534">
			<g id="g9536">
				<g id="g9538">
				</g>
			</g>
		</g>
	</g>
	<g id="g9542">
		<g id="g9544">
			<g id="g9546">
				<g id="g9548">
				</g>
			</g>
		</g>
	</g>
	<g id="g9552">
		<g id="g9554">
			<g id="g9556">
				<g id="g9558">
				</g>
			</g>
		</g>
	</g>
	<g id="g9570">
		<g id="g9572">
			<g id="g9574">
				<g id="g9576">
				</g>
			</g>
		</g>
	</g>
	<g id="g9580">
		<g id="g9582">
			<g id="g9584">
				<g id="g9586">
				</g>
			</g>
		</g>
	</g>
	<g id="g9590">
		<g id="g9592">
			<g id="g9594">
				<g id="g9596">
				</g>
			</g>
		</g>
	</g>
	<g id="g9600">
		<g id="g9602">
			<g id="g9604">
				<g id="g9606">
				</g>
			</g>
		</g>
	</g>
	<g id="g9610">
		<g id="g9612">
			<g id="g9614">
				<g id="g9616">
				</g>
			</g>
		</g>
	</g>
	<g id="g9620">
		<g id="g9622">
			<g id="g9624">
				<g id="g9626">
				</g>
			</g>
		</g>
	</g>
	<g id="g9630">
		<g id="g9632">
			<g id="g9634">
				<g id="g9636">
				</g>
			</g>
		</g>
	</g>
	<g id="g10128">
		<g id="g10130">
			<g id="g10132">
			</g>
		</g>
	</g>
	<g id="g10326">
		<path id="path10342" fill="#140F10" d="M55.08,1.584C32.04,2.232,13.392,5.112,9.216,9.576c-3.672,3.96-8.28,7.272-8.424,12.6
			c-0.144,5.256,5.976,5.688,9.72,5.688c3.744,0,7.128-0.288,7.056-2.521c0-3.024-4.896-2.448-4.896-5.472
			c0-3.528,19.08-4.392,28.584-4.392c81.864-0.288,175.968,56.376,176.112,104.4c0.144,37.368-48.456,45.72-75.312,45.792
			c-9.504,0.072-18.792-1.008-27.576-2.592c-0.36-11.951-1.08-36.863-1.44-52.631c3.096-0.072,5.976-0.072,8.496-0.072
			c19.8-0.072,45.864,6.912,45.936,11.52c0,3.96-6.912,6.695-6.912,10.512c0.072,2.809,6.408,2.377,11.952,2.736
			c1.008,0.072,12.24-6.191,12.168-16.056c0-13.104-16.344-28.584-69.624-28.44c-0.72,0-1.512,0.072-2.304,0.072
			c-0.504-14.688-2.664-37.872-11.016-37.872c-6.912,0.072-8.928,25.56-9.576,39.672c-29.88,4.464-56.448,16.632-56.376,28.584
			c0,9.792,21.384,34.487,55.944,49.464c0.576,11.088,2.736,18.721,12.528,18.648c7.2,0,9.576-5.256,10.368-10.801
			c11.16,2.881,23.328,4.465,36.144,4.465c50.184-0.145,90.432-26.928,90.288-63.648C240.912,69.984,141.48-0.864,55.008,1.512
			L55.08,1.584z M41.616,124.128c0-8.568,26.136-11.809,50.256-13.032c-0.216,13.464-0.36,32.831-0.36,45.72
			C61.848,146.376,41.616,129.744,41.616,124.128z"/>
		<path id="path10344" fill="#140F10" d="M259.056,91.944c-8.496,0.072-8.712,34.2-8.928,46.656
			c-0.576,28.512,3.6,31.896,11.16,31.823c6.768,0,9.144-0.791,8.496-24.623c-1.008-45.072-4.104-53.784-10.728-53.784V91.944z"/>
		<path id="path10346" fill="#140F10" d="M263.448,78.984c18.792-0.072,48.672-21.384,48.6-39.024
			c0-7.992-4.104-12.024-14.399-13.536c-4.32-4.104-10.656-8.712-20.088-8.712c-29.232,0.072-48.168,23.328-48.168,36
			c0,4.68,1.512,10.44,5.688,15.264c0.144,10.08,2.592,12.744,5.904,12.744c3.672,0,5.832-2.088,7.272-4.68
			C252.432,78.336,257.472,79.056,263.448,78.984z M265.392,64.656c-4.392,0-7.992-0.504-11.088-1.44
			c8.28-9.36,28.368-27.072,38.232-27.072c6.479-0.072,7.56,5.112,7.56,7.056c0,11.88-24.264,21.528-34.704,21.528V64.656z
			 M266.76,33.192c-9,5.328-18.216,12.672-24.336,20.088c-0.288-1.008-0.432-1.944-0.432-2.808
			C241.92,44.784,250.272,36,266.76,33.192z"/>
		<path id="path10348" fill="#140F10" d="M360.648,98.064c-0.072-7.848-20.377-7.776-31.752-7.704
			c-8.568,0-52.057,1.008-51.984,25.272c0.072,16.417,24.336,12.456,40.464,14.04c13.176,1.297,29.16,5.545,29.16,9.865
			c0.071,9.575-34.776,13.463-41.976,13.535c-14.761,0-15.121-4.248-15.121-6.48c0-2.159,2.448-5.832,7.992-5.832
			c5.544,0,16.919,7.057,24.768,7.057c7.848-0.072,14.472-3.527,14.399-7.057c0-6.407-26.063-9.575-34.127-9.504
			c-8.425,0.072-20.593,3.529-20.593,16.201c0.072,6.551,10.8,22.176,41.112,22.031c29.88-0.072,37.439-17.064,37.367-25.775
			c-0.071-21.312-20.159-23.688-37.728-25.201c-13.104-1.08-27.36-1.728-27.288-4.608c0.144-9.72,65.305-2.52,65.232-15.768
			L360.648,98.064z"/>
		<path id="path10350" fill="#140F10" d="M410.256,80.064c-2.448,0-2.88,2.592-2.88,5.4c0.072,8.28,11.521,37.296,11.521,48.312
			c0,2.304-0.217,6.408-1.944,6.912c-2.736,0.792-26.784-43.056-36.72-43.704c-10.297-0.72-15.769,42.984-15.696,53.784
			c0.071,10.8,1.944,18,9.864,18c11.879-0.072,5.688-43.776,10.512-43.776c3.527,0,22.896,39.961,33.624,39.961
			c11.664-0.072,18.576-17.137,18.504-28.225c-0.072-25.416-16.992-56.592-26.784-56.592V80.064z"/>
		<path id="path10352" fill="#140F10" d="M490.896,147.744c-4.177,0-27.433,5.184-28.944,3.744
			c-1.513-1.439,1.296-14.832,4.248-15.768s21.096-0.648,24.048-0.864c8.424-0.433,6.84-11.88,1.656-12.312
			c-2.664-0.216-19.152-0.288-20.017-1.8c-0.864-1.512,0.216-9.072,2.088-9.864c3.744-1.512,28.729-2.232,30.601-2.736
			c3.096-0.72,5.399-2.376,6.12-5.04c0.792-2.664-8.641-13.536-20.376-12.312c-20.017,2.232-46.008,2.088-46.008,8.64
			c0,6.12,12.168,8.568,12.455,10.296c0.36,1.656-1.584,8.064-2.231,10.008c-0.72,2.16-9.433,2.808-10.008,8.784
			c-0.145,1.368,2.159,3.528,1.655,5.185c-1.367,5.111-5.472,15.407-5.472,19.728c0.072,6.624,4.896,21.456,18.576,21.024
			c21.456-0.721,40.752-15.697,41.04-18.36c0.504-3.96-5.473-8.568-9.576-8.568L490.896,147.744z"/>
		<path id="path10354" fill="#140F10" d="M574.128,96.84c-11.736,0.648-34.2,25.488-47.376,42.264
			c-0.792-1.728-1.296-3.384-1.296-4.896c0-7.057,13.392-28.296,15.84-33.625c2.592-5.544-0.36-12.816-3.528-10.224
			c-6.336,5.112-26.352,28.44-26.279,50.185c0,4.967,1.296,11.088,4.104,16.631c-4.536,14.545-15.408,47.017-15.048,66.673
			c0.144,10.151,10.44,20.159,16.56,18.864c2.377-0.504,2.881-13.824,5.977-22.896c4.32-12.96,11.232-36.72,13.68-46.872
			c1.08,0.072,2.232,0.216,3.456,0.216c24.48-0.072,51.624-26.136,51.552-48.672c-0.071-22.464-13.392-27.864-17.64-27.576V96.84z
			 M545.976,152.423c9.792-17.063,24.12-39.671,29.448-39.599c3.672,0.072,5.112,3.744,5.112,9.288
			C580.607,138.816,560.376,152.64,545.976,152.423z"/>
	</g>
	<g id="g10492">
		<g id="g10494">
			<g id="g10496">
				<g id="g10498">
				</g>
			</g>
		</g>
	</g>
	<g id="g10728">
		<g id="g10730">
		</g>
	</g>
	<g id="g11250">
		<g id="g11252">
			<g id="g11254">
				<g id="g11256">
				</g>
			</g>
		</g>
	</g>
	<g id="g11322">
		<g id="g11324">
			<g id="g11326">
				<g id="g11328">
				</g>
			</g>
		</g>
	</g>
	<g id="g11332">
		<g id="g11334">
			<g id="g11336">
				<g id="g11338">
				</g>
			</g>
		</g>
	</g>
	<g id="g12370">
		<g id="g12372">
			<g id="g12374">
				<g id="g12376">
				</g>
			</g>
		</g>
	</g>
	<g id="g12380">
		<g id="g12382">
			<g id="g12384">
				<g id="g12386">
				</g>
			</g>
		</g>
	</g>
	<g id="g12390">
		<g id="g12392">
			<g id="g12394">
				<g id="g12396">
				</g>
			</g>
		</g>
	</g>
	<g id="g14230">
	</g>
	<g id="g14242">
		<g id="g14244">
		</g>
	</g>
	<g id="g14288">
		<g id="g14290">
			<g id="g14292">
				<g id="g14294">
				</g>
			</g>
		</g>
	</g>
	<g id="g14298">
		<g id="g14300">
			<g id="g14302">
				<g id="g14304">
				</g>
			</g>
		</g>
	</g>
	<g id="g14356">
	</g>
</g>
</svg>
