<?xml version="1.0" encoding="utf-8"?>
<!-- Generator: Adobe Illustrator 16.0.0, SVG Export Plug-In . SVG Version: 6.00 Build 0)  -->
<!DOCTYPE svg PUBLIC "-//W3C//DTD SVG 1.1//EN" "http://www.w3.org/Graphics/SVG/1.1/DTD/svg11.dtd">
<svg version="1.1" id="Layer_1" xmlns="http://www.w3.org/2000/svg" xmlns:xlink="http://www.w3.org/1999/xlink" x="0px" y="0px"
	 width="480px" height="105px" viewBox="720 157.5 480 105" enable-background="new 720 157.5 480 105" xml:space="preserve">
<title>Microsoft Logo</title>
<g>
	<g>
		<path fill="#737373" d="M883.386,217.572l-2.782,7.881h-0.232c-0.463-1.777-1.313-4.48-2.704-7.727l-14.913-37.475h-14.604v59.729
			h9.658v-36.857c0-2.318,0-4.945-0.077-8.19c-0.077-1.623-0.232-2.859-0.31-3.786h0.232c0.463,2.318,1.004,4.018,1.391,5.1
			l17.926,43.579h6.8l17.771-43.965c0.386-1.005,0.773-3.014,1.159-4.714h0.232c-0.232,4.404-0.386,8.345-0.464,10.74v37.861h10.277
			v-59.651h-14.063L883.386,217.572z M922.483,196.941h10.045v42.807h-10.045V196.941z M927.583,178.861
			c-1.7,0-3.091,0.618-4.25,1.7c-1.159,1.082-1.777,2.473-1.777,4.173c0,1.623,0.618,3.014,1.777,4.095
			c1.159,1.082,2.55,1.623,4.25,1.623c1.7,0,3.168-0.618,4.25-1.623c1.159-1.081,1.777-2.473,1.777-4.095
			c0-1.623-0.618-3.014-1.777-4.173C930.828,179.479,929.36,178.861,927.583,178.861 M968.148,196.555
			c-1.854-0.386-3.785-0.618-5.641-0.618c-4.558,0-8.73,1.004-12.208,3.013c-3.477,2.009-6.259,4.791-8.036,8.268
			c-1.854,3.554-2.782,7.65-2.782,12.363c0,4.095,0.927,7.728,2.705,11.05c1.777,3.245,4.25,5.872,7.572,7.649
			c3.168,1.777,6.876,2.704,11.049,2.704c4.791,0,8.886-1.005,12.131-2.859l0.078-0.077v-9.272l-0.387,0.31
			c-1.469,1.081-3.168,2.009-4.868,2.55c-1.776,0.618-3.399,0.927-4.79,0.927c-4.019,0-7.187-1.159-9.427-3.708
			c-2.318-2.473-3.477-5.873-3.477-10.123c0-4.404,1.159-7.881,3.554-10.431s5.563-3.863,9.426-3.863
			c3.246,0,6.568,1.082,9.582,3.245l0.387,0.309v-9.812l-0.078-0.077C971.626,197.56,970.158,196.941,968.148,196.555
			 M1001.297,196.246c-2.473,0-4.791,0.772-6.799,2.396c-1.7,1.391-2.859,3.4-3.863,5.795h-0.078v-7.495h-10.045v42.806h10.045
			v-21.866c0-3.709,0.773-6.8,2.473-9.041c1.7-2.318,3.863-3.477,6.491-3.477c0.927,0,1.854,0.231,3.013,0.386
			c1.082,0.31,1.855,0.618,2.396,1.005l0.386,0.309v-10.045l-0.231-0.077C1004.388,196.478,1002.997,196.246,1001.297,196.246
			 M1028.65,196.015c-7.031,0-12.672,2.086-16.613,6.181c-4.018,4.095-5.949,9.736-5.949,16.845c0,6.645,2.009,12.053,5.872,15.994
			c3.864,3.863,9.118,5.872,15.686,5.872c6.877,0,12.363-2.087,16.304-6.259c4.018-4.172,5.949-9.735,5.949-16.612
			c0-6.8-1.854-12.208-5.641-16.149C1040.627,197.946,1035.295,196.015,1028.65,196.015 M1036.686,228.931
			c-1.854,2.396-4.79,3.555-8.422,3.555c-3.631,0-6.567-1.159-8.654-3.71c-2.086-2.395-3.09-5.871-3.09-10.275
			c0-4.56,1.082-8.036,3.09-10.509c2.087-2.473,4.945-3.709,8.577-3.709c3.555,0,6.337,1.159,8.345,3.554
			c2.01,2.396,3.092,5.873,3.092,10.431C1039.468,222.904,1038.618,226.535,1036.686,228.931 M1072.307,214.713
			c-3.168-1.312-5.177-2.317-6.104-3.168c-0.773-0.772-1.16-1.854-1.16-3.245c0-1.159,0.464-2.318,1.623-3.091
			s2.473-1.159,4.404-1.159c1.7,0,3.477,0.31,5.178,0.773c1.699,0.463,3.244,1.159,4.48,2.086l0.387,0.309v-9.426l-0.231-0.077
			c-1.159-0.463-2.704-0.927-4.559-1.314c-1.854-0.309-3.555-0.463-4.945-0.463c-4.791,0-8.731,1.159-11.822,3.709
			c-3.091,2.396-4.559,5.641-4.559,9.427c0,2.009,0.309,3.787,1.005,5.254c0.695,1.468,1.699,2.859,3.09,4.018
			c1.391,1.082,3.4,2.318,6.182,3.478c2.318,1.004,4.096,1.777,5.178,2.395c1.081,0.619,1.776,1.314,2.317,1.855
			c0.387,0.617,0.618,1.391,0.618,2.395c0,2.859-2.163,4.25-6.567,4.25c-1.7,0-3.478-0.309-5.563-1.004
			c-2.086-0.696-4.018-1.701-5.641-2.859l-0.387-0.31v9.813l0.232,0.077c1.468,0.696,3.245,1.159,5.408,1.7
			c2.164,0.387,4.096,0.695,5.796,0.695c5.177,0,9.427-1.159,12.44-3.709c3.091-2.473,4.713-5.641,4.713-9.736
			c0-2.858-0.772-5.408-2.473-7.34C1079.106,218.19,1076.325,216.259,1072.307,214.713 M1110.323,196.015
			c-7.032,0-12.673,2.086-16.613,6.181s-5.949,9.736-5.949,16.845c0,6.645,2.009,12.053,5.872,15.994
			c3.863,3.863,9.118,5.872,15.686,5.872c6.877,0,12.363-2.087,16.304-6.259c4.018-4.172,5.949-9.735,5.949-16.612
			c0-6.8-1.854-12.208-5.641-16.149C1122.299,197.946,1116.968,196.015,1110.323,196.015 M1118.281,228.931
			c-1.854,2.396-4.791,3.555-8.422,3.555c-3.709,0-6.567-1.159-8.654-3.71c-2.086-2.395-3.091-5.871-3.091-10.275
			c0-4.56,1.082-8.036,3.091-10.509c2.087-2.473,4.945-3.709,8.577-3.709c3.478,0,6.336,1.159,8.345,3.554
			c2.01,2.396,3.091,5.873,3.091,10.431C1121.218,222.904,1120.213,226.535,1118.281,228.931"/>
		<path fill="#737373" d="M1185.273,205.209v-8.268h-10.122V184.27l-0.31,0.077l-9.581,2.859l-0.231,0.077v9.658h-15.145v-5.409
			c0-2.473,0.618-4.405,1.699-5.64c1.082-1.237,2.705-1.855,4.714-1.855c1.391,0,2.859,0.309,4.481,1.004l0.387,0.232v-8.731
			l-0.232-0.077c-1.391-0.463-3.244-0.772-5.641-0.772c-3.013,0-5.641,0.695-8.035,1.854c-2.396,1.313-4.173,3.091-5.486,5.486
			c-1.313,2.318-2.009,4.945-2.009,7.958v5.95h-7.031v8.19h7.031v34.616h10.122v-34.539h15.145v22.021c0,9.041,4.25,13.6,12.75,13.6
			c1.39,0,2.858-0.232,4.249-0.464c1.468-0.309,2.55-0.695,3.168-1.005l0.077-0.077v-8.267l-0.386,0.309
			c-0.618,0.387-1.159,0.695-2.087,0.927c-0.772,0.232-1.468,0.31-2.009,0.31c-2.009,0-3.399-0.464-4.404-1.623
			c-0.927-1.082-1.391-2.859-1.391-5.486v-20.244H1185.273L1185.273,205.209z"/>
	</g>
	<path fill="#F25022" d="M718.649,160.162h47.365v47.365h-47.365V160.162z"/>
	<path fill="#7FBA00" d="M770.96,160.162h47.366v47.365H770.96V160.162z"/>
	<path fill="#00A4EF" d="M718.649,212.473h47.365v47.365h-47.365V212.473z"/>
	<path fill="#FFB900" d="M770.96,212.473h47.366v47.365H770.96V212.473z"/>
</g>
</svg>
