<?xml version="1.0" encoding="utf-8"?>
<!-- Generator: Adobe Illustrator 16.0.0, SVG Export Plug-In . SVG Version: 6.00 Build 0)  -->
<!DOCTYPE svg PUBLIC "-//W3C//DTD SVG 1.1//EN" "http://www.w3.org/Graphics/SVG/1.1/DTD/svg11.dtd">
<svg version="1.1" id="Layer_1" xmlns="http://www.w3.org/2000/svg" xmlns:xlink="http://www.w3.org/1999/xlink" x="0px" y="0px"
	 width="530px" height="272px" viewBox="-115.787 0 530 272" enable-background="new -115.787 0 530 272" xml:space="preserve">
<g id="Layer_2">
	<g id="Layer_2_1_">
		<g>
			<g>
				<path fill="#0B3D91" d="M149.211,10.473c69.328,0,125.528,56.198,125.528,125.526s-56.2,125.528-125.528,125.528
					c-69.324,0-125.525-56.199-125.525-125.527S79.887,10.473,149.211,10.473z"/>
			</g>
			<g>
				<path fill="#FFFFFF" d="M141.803,33.175c0.775,0,1.404,0.63,1.404,1.406c0,0.777-0.629,1.409-1.404,1.409
					c-0.779,0-1.408-0.631-1.408-1.408C140.395,33.806,141.022,33.175,141.803,33.175z"/>
				<circle fill="#FFFFFF" cx="156.248" cy="36.458" r="1.408"/>
				<circle fill="#FFFFFF" cx="175.196" cy="61.978" r="1.408"/>
				<path fill="#FFFFFF" d="M71.252,191.916c0.776,0,1.406,0.629,1.406,1.404c0,0.779-0.63,1.41-1.406,1.41
					c-0.777,0-1.408-0.631-1.408-1.41C69.844,192.544,70.474,191.916,71.252,191.916z"/>
				<circle fill="#FFFFFF" cx="74.91" cy="204.58" r="1.408"/>
				<path fill="#FFFFFF" d="M57.459,193.955c0.584,0,1.055,0.473,1.055,1.058c0,0.579-0.471,1.051-1.055,1.051
					c-0.58,0-1.054-0.472-1.054-1.051C56.405,194.427,56.879,193.955,57.459,193.955z"/>
				<circle fill="#FFFFFF" cx="114.687" cy="217.126" r="1.059"/>
				<circle fill="#FFFFFF" cx="204.444" cy="198.477" r="1.054"/>
				<path fill="#FFFFFF" d="M230.528,169.089c0.586,0,1.06,0.478,1.06,1.058c0,0.586-0.474,1.057-1.06,1.057
					c-0.584,0-1.057-0.471-1.057-1.057C229.472,169.566,229.944,169.089,230.528,169.089z"/>
				<circle fill="#FFFFFF" cx="102.68" cy="70.208" r="1.054"/>
				<circle fill="#FFFFFF" cx="131.388" cy="49.125" r="1.055"/>
				<circle fill="#FFFFFF" cx="128.271" cy="47.061" r="1.054"/>
				<circle fill="#FFFFFF" cx="125.455" cy="44.997" r="1.054"/>
				<circle fill="#FFFFFF" cx="107.183" cy="75.653" r="1.054"/>
				<circle fill="#FFFFFF" cx="149.469" cy="20.792" r="1.054"/>
				<circle fill="#FFFFFF" cx="156.416" cy="51.188" r="1.054"/>
				<circle fill="#FFFFFF" cx="145.461" cy="45.252" r="1.054"/>
				<circle fill="#FFFFFF" cx="126.696" cy="53.325" r="1.054"/>
				<path fill="#FFFFFF" d="M209.446,225.27c0.58,0,1.056,0.471,1.056,1.051c0,0.586-0.476,1.057-1.056,1.057
					c-0.584,0-1.053-0.471-1.053-1.057C208.394,225.74,208.862,225.27,209.446,225.27z"/>
				<path fill="#FFFFFF" d="M69.467,199.395c0.588,0,1.061,0.473,1.061,1.057s-0.473,1.059-1.061,1.059
					c-0.582,0-1.057-0.475-1.057-1.059S68.885,199.395,69.467,199.395z"/>
				<path fill="#FFFFFF" d="M142.832,213c0.586,0,1.061,0.472,1.061,1.058c0,0.58-0.475,1.057-1.061,1.057
					c-0.584,0-1.058-0.477-1.058-1.057C141.774,213.47,142.248,213,142.832,213z"/>
				<path fill="#FFFFFF" d="M91.303,198.548c0.584,0,1.057,0.478,1.057,1.058c0,0.586-0.473,1.057-1.057,1.057
					c-0.582,0-1.057-0.471-1.057-1.057C90.246,199.025,90.721,198.548,91.303,198.548z"/>
				<circle fill="#FFFFFF" cx="100.428" cy="214.505" r="1.057"/>
				<circle fill="#FFFFFF" cx="167.601" cy="205.12" r="1.054"/>
				<path fill="#FFFFFF" d="M204.635,183.167c0.58,0,1.053,0.472,1.053,1.051c0,0.584-0.473,1.058-1.053,1.058
					c-0.584,0-1.055-0.474-1.055-1.058C203.58,183.639,204.051,183.167,204.635,183.167z"/>
				<circle fill="#FFFFFF" cx="232.709" cy="197.048" r="1.053"/>
				<circle fill="#FFFFFF" cx="242.283" cy="203.168" r="1.054"/>
				<path fill="#FFFFFF" d="M243.853,185.416c0.58,0,1.053,0.478,1.053,1.058c0,0.579-0.473,1.055-1.053,1.055
					c-0.584,0-1.055-0.476-1.055-1.055C242.798,185.894,243.269,185.416,243.853,185.416z"/>
				<circle fill="#FFFFFF" cx="104.248" cy="162.833" r="1.054"/>
				<circle fill="#FFFFFF" cx="104.647" cy="187.037" r="1.406"/>
				<circle fill="#FFFFFF" cx="113.094" cy="204.861" r="1.408"/>
				<path fill="#FFFFFF" d="M214.226,184.878c0.779,0,1.408,0.629,1.408,1.404c0,0.779-0.629,1.412-1.408,1.412
					c-0.774,0-1.404-0.633-1.404-1.412C212.821,185.507,213.451,184.878,214.226,184.878z"/>
				<path fill="#FFFFFF" d="M250.629,182.814c0.776,0,1.408,0.629,1.408,1.403c0,0.779-0.632,1.412-1.408,1.412
					c-0.777,0-1.406-0.633-1.406-1.412C249.222,183.443,249.851,182.814,250.629,182.814z"/>
				<path fill="#FFFFFF" d="M232.614,175.119c0.777,0,1.408,0.631,1.408,1.41c0,0.775-0.631,1.404-1.408,1.404
					c-0.774,0-1.405-0.629-1.405-1.404C231.209,175.75,231.84,175.119,232.614,175.119z"/>
				<path fill="#FFFFFF" d="M214.226,175.869c0.779,0,1.408,0.633,1.408,1.412c0,0.775-0.629,1.404-1.408,1.404
					c-0.774,0-1.404-0.629-1.404-1.404C212.821,176.501,213.451,175.869,214.226,175.869z"/>
				<path fill="#FFFFFF" d="M176.297,33.701l3.5-0.334l-3.494-0.198c-0.109-0.676-0.65-1.205-1.332-1.291l-0.332-3.483l-0.199,3.512
					c-0.631,0.141-1.117,0.668-1.192,1.326l-3.582,0.326l3.604,0.192c0.131,0.604,0.617,1.076,1.23,1.188l0.326,3.59l0.188-3.584
					C175.662,34.835,176.176,34.339,176.297,33.701z"/>
				<path fill="#FFFFFF" d="M117.235,72.66l3.5-0.334l-3.491-0.197c-0.107-0.676-0.652-1.205-1.332-1.291l-0.336-3.483l-0.195,3.512
					c-0.637,0.141-1.121,0.668-1.197,1.326l-3.581,0.325l3.604,0.192c0.133,0.604,0.616,1.076,1.229,1.188l0.328,3.59l0.191-3.584
					C116.604,73.798,117.117,73.298,117.235,72.66z"/>
				<path fill="#FFFFFF" d="M248.063,175.666l3.5-0.334l-3.494-0.194c-0.106-0.679-0.649-1.203-1.332-1.289l-0.336-3.486
					l-0.19,3.512c-0.635,0.146-1.117,0.672-1.197,1.332l-3.58,0.322l3.603,0.188c0.135,0.601,0.623,1.076,1.233,1.187l0.326,3.592
					l0.191-3.586C247.43,176.805,247.94,176.307,248.063,175.666z"/>
				<path fill="#FFFFFF" d="M105.416,229.521l3.5-0.336l-3.494-0.193c-0.111-0.678-0.65-1.203-1.332-1.291l-0.332-3.482
					l-0.199,3.514c-0.635,0.142-1.121,0.666-1.197,1.324l-3.58,0.324l3.605,0.195c0.131,0.605,0.619,1.082,1.23,1.186l0.325,3.592
					l0.193-3.584C104.778,230.66,105.297,230.156,105.416,229.521z"/>
				<path fill="#FFFFFF" d="M236.946,203.251l3.5-0.334l-3.491-0.19c-0.107-0.679-0.654-1.203-1.332-1.295l-0.336-3.482
					l-0.199,3.512c-0.629,0.142-1.111,0.666-1.193,1.326l-3.58,0.324l3.603,0.195c0.131,0.598,0.619,1.073,1.235,1.186l0.324,3.59
					l0.195-3.584C236.312,204.395,236.826,203.893,236.946,203.251z"/>
			</g>
			<g>
				<g>
					<path fill="#FC3D21" d="M178.978,105.93c-14.595,5.676-28.826,10.736-40.843,14.495c-24.407,7.644-91.188,28.332-131.53,54.412
						l3.377,1.312c24.582-13.879,40.558-18.244,55.916-23.074c16.697-5.26,70.683-17.889,95.129-24.77
						c8.259-2.324,17.931-5.365,28.177-9.068c-2.384-3.324-4.894-6.66-7.543-9.984C180.783,108.128,179.883,107.021,178.978,105.93z
						 M196.815,130.507c-3.537,2.386-6.498,4.291-8.567,5.492c-12.011,6.943-70.56,46.906-83.875,56.099
						c-13.32,9.198-50.289,44.1-61.17,54.231l-0.375,4.125c35.086-31.521,46.096-39.295,60.043-49.906
						c17.262-13.138,52.971-37.437,65.106-45.222c11.603-7.443,22.07-14.287,31.459-20.553c-0.153-0.256-0.309-0.515-0.459-0.773
						C198.267,132.841,197.547,131.677,196.815,130.507z M251.664,72.578c-17.099,10.021-44.037,22.113-70.172,32.379
						c0.622,0.765,1.245,1.537,1.864,2.316c2.927,3.678,5.679,7.379,8.271,11.084c20.547-7.566,43.092-17.726,60.981-30.019
						c-8.526,8.074-36.696,29.131-53.879,40.867c0.888,1.441,1.748,2.883,2.572,4.318c26.021-17.414,43.537-30.234,53.742-38.808
						c14.074-11.819,46.158-38.274,58.352-73.737C292.002,48.188,266.709,63.757,251.664,72.578z"/>
				</g>
			</g>
			<path fill="#FFFFFF" d="M133.058,167.08c-2.766-3.479-6.592-8.146-9.467-11.77c-3.843-4.838-7.398-9.724-10.658-14.609
				c-1.062,0.268-2.121,0.531-3.182,0.799c3.934,6.14,8.301,12.271,13.062,18.265c3.476,4.373,6.64,7.896,8.258,10.096
				c0.328,0.438,0.979,1.424,1.855,2.729c1.014-0.688,2.037-1.381,3.07-2.082C134.998,169.423,134.015,168.283,133.058,167.08z
				 M153.262,185.416c-2.273-2.149-7.785-5.74-13.523-11.135c-1.268,0.867-2.547,1.754-3.829,2.639
				c3.709,5.224,8.754,11.64,12.709,13.513C154.571,193.25,156.174,188.18,153.262,185.416z M183.354,107.27
				c-32.808-41.3-72.892-63.986-90.174-50.254c-13.422,10.661-7.91,41.829,10.59,74.567c0.957-0.328,1.904-0.649,2.842-0.971
				c-18.672-31.896-23.778-61.539-11.123-71.6c15.908-12.642,54.32,10.135,86.179,50.233c6.597,8.302,12.399,16.634,17.304,24.754
				c18.807,31.117,24.568,59.256,11.58,70.744c-3.973,3.512-16.121,4.891-32.033-2.268c-0.217,0.276,0.135,1.03,0.412,1.217
				c13.738,5.524,26.896,7.627,33.539,2.352C228.428,193.357,216.166,148.57,183.354,107.27z"/>
			<g>
				<path fill="#FFFFFF" d="M42.635,112.169h21.018L81.29,142.1c0,0,0-21.675,0-23.363c0-2.625-3.328-6.051-4.502-6.566
					c1.405,0,13.696,0,14.541,0c-0.894,0.234-3.754,3.705-3.754,6.566c0,1.408,0,32.836,0,34.34c0,2.105,3.051,5.014,4.504,6.146
					H71.812l-17.916-30.07c0,0,0,22.422,0,23.645c0,2.347,2.299,4.593,4.689,6.517h-15.48c2.205-0.935,4.316-3.892,4.506-6.234
					c0.187-2.346,0-32.604,0-33.916C47.61,116.298,44.84,113.953,42.635,112.169z"/>
				<path fill="#FFFFFF" d="M234.864,159.22h27.955c-1.547-0.377-3.282-2.204-4.223-4.646c-0.936-2.434-15.758-42.404-15.758-42.404
					H232.21c-3.015,2.172-6.244,4.459-9.693,6.871c-0.008,0.086-0.021,0.174-0.033,0.26c-0.463,2.814-8.785,32.938-9.293,34.429
					c-0.703,2.063-4.313,4.364-5.77,5.582h15.061c-1.504-1.687-2.725-3.324-2.44-5.203c0.28-1.881,1.127-5.631,1.127-5.631h15.569
					c0.707,1.875,1.232,3.561,1.498,5.16C238.571,155.561,236.603,157.716,234.864,159.22z M222.576,142.473l5.256-17.168
					l6.944,17.168H222.576z M220.209,113.882c0.772-0.567,1.549-1.141,2.321-1.713h-4.084
					C218.856,112.544,219.528,113.136,220.209,113.882z"/>
				<path fill="#FFFFFF" d="M113.283,154.107c0.278-1.881,1.122-5.631,1.122-5.631h15.574c0.703,1.875,1.229,3.561,1.5,5.159
					c0.33,1.919-1.641,4.08-3.377,5.576h24.613c0.514-0.342,1.022-0.684,1.533-1.024c-0.951-0.843-1.832-2.113-2.408-3.615
					c-0.941-2.438-15.762-42.406-15.762-42.406h-24.395c1.172,1.08,4.551,3.988,4.033,7.131c-0.457,2.814-8.779,32.939-9.287,34.433
					c-0.701,2.063-4.313,4.36-5.768,5.582h15.056C114.221,157.625,112.998,155.986,113.283,154.107z M121.065,125.305l6.945,17.168
					h-12.197L121.065,125.305z"/>
				<path fill="#FFFFFF" d="M198.306,135.525c-4.59,3.057-9.434,6.254-14.537,9.586c2.287,1.104,4.111,2.504,4.285,4.305
					c0.326,3.385-6.471,5.017-12.615,4.312c-1.229-0.142-2.434-0.461-3.586-0.892c-1.276,0.82-2.563,1.648-3.873,2.488
					c-1.328,0.852-2.938,1.902-4.781,3.117v4.858c1.22-2.396,3.888-4.534,5.955-4.645c0.892-0.047,3.988,2.812,16.748,2.113
					c6.188-0.343,18.152-6.945,17.963-14.543C203.752,141.732,201.405,138.232,198.306,135.525z M163.192,147.257v4.947
					c1.127-0.752,2.24-1.494,3.332-2.217C164.808,148.792,163.592,147.675,163.192,147.257z M193.944,132.417
					c-1.184-0.703-2.395-1.317-3.549-1.862c-6.004-2.814-12.289-3.33-13.602-7.132c-0.926-2.68,1.688-5.157,8.067-5.065
					c6.379,0.096,12.289,3.895,13.888,5.256v-12.104c-0.472,0.47-2.531,2.832-4.41,2.439c-3.613-0.75-9.76-1.729-16.797-1.688
					c-8.068,0.046-15.008,6.281-15.244,14.166c-0.33,11.021,8.488,14.023,13.461,15.761c0.514,0.182,1.1,0.373,1.729,0.578
					c4.771-3.104,8.543-5.492,10.755-6.767C189.724,135.143,191.668,133.916,193.944,132.417z"/>
			</g>
		</g>
	</g>
</g>
<g id="Layer_3">
</g>
</svg>
