<?xml version="1.0" encoding="utf-8"?>
<!-- Generator: Adobe Illustrator 16.0.0, SVG Export Plug-In . SVG Version: 6.00 Build 0)  -->
<!DOCTYPE svg PUBLIC "-//W3C//DTD SVG 1.1//EN" "http://www.w3.org/Graphics/SVG/1.1/DTD/svg11.dtd">
<svg version="1.1" id="Layer_1" xmlns="http://www.w3.org/2000/svg" xmlns:xlink="http://www.w3.org/1999/xlink" x="0px" y="0px"
	 width="480px" height="200px" viewBox="-100 -50 480 200" enable-background="new -100 -50 480 200" xml:space="preserve">
<g>
	<g>
		<path fill="#4D4D4D" d="M-25.805-24.465c-34.905,0-65.214,35.631-65.214,70.835c0,39.045,23.827,78.097,65.214,78.097
			c41.39,0,65.004-39.052,65.004-78.097C39.199,11.166,9.101-24.465-25.805-24.465z M8.479,70.269
			c0,8.319-0.213,16.428-2.093,23.897c-3.758,14.723-12.336,24.962-32.19,24.962c-19.651,0-28.423-10.239-32.188-24.962
			c-1.882-7.47-2.298-15.578-2.298-23.897V23.756c0-7.681,1.251-14.938,3.138-21.336c3.762-13.015,12.746-21.549,31.351-21.549
			c18.395,0,26.964,8.534,31.146,21.549C7.436,8.818,8.48,16.075,8.48,23.756v46.513H8.479z M82.65,39.688
			c-7.918,0-13.091,6-13.091,13.363c0,7.361,5.173,13.362,13.091,13.362c7.915,0,13.087-6.001,13.087-13.362
			C95.737,45.688,90.565,39.688,82.65,39.688z M173.07-21.265h-67.515v5.335h20.695v131.858h-20.695v5.333h69.605v-5.333h-22.156
			V56.614h23.829c24.036,0,54.554-8.75,54.554-38.621C231.39-15.721,199.616-21.265,173.07-21.265z M177.461,51.277h-24.456V-15.93
			h24.456c23.411,0,24.458,18.348,24.458,33.712C201.915,35.274,197.73,51.277,177.461,51.277z M269.207,38.206
			c-7.921,0-13.09,5.999-13.09,13.362c0,7.361,5.169,13.362,13.09,13.362c7.92,0,13.093-6.001,13.093-13.362
			C282.3,44.205,277.127,38.206,269.207,38.206z M371.02-15.93v-5.333h-68.144v5.333h20.698v131.858h-20.698v5.335h68.144v-5.335
			h-20.694V-15.93H371.02z"/>
	</g>
</g>
</svg>
