<?xml version="1.0" encoding="utf-8"?>
<!-- Generator: Adobe Illustrator 16.0.0, SVG Export Plug-In . SVG Version: 6.00 Build 0)  -->
<!DOCTYPE svg PUBLIC "-//W3C//DTD SVG 1.1//EN" "http://www.w3.org/Graphics/SVG/1.1/DTD/svg11.dtd">
<svg version="1.1"
	 id="svg5544" xmlns:rdf="http://www.w3.org/1999/02/22-rdf-syntax-ns#" xmlns:cc="http://creativecommons.org/ns#" xmlns:dc="http://purl.org/dc/elements/1.1/" xmlns:svg="http://www.w3.org/2000/svg"
	 xmlns="http://www.w3.org/2000/svg" xmlns:xlink="http://www.w3.org/1999/xlink" x="0px" y="0px" width="270px" height="220px"
	 viewBox="105.001 3.16 270 220" enable-background="new 105.001 3.16 270 220" xml:space="preserve">
<g id="layer1" transform="translate(52.857116,161.60686)">
	<g id="g5487" transform="matrix(2.0927434,0,0,2.0927434,1328.4725,-79.270068)">
		<g>
			<path id="path3878" fill="#8E8B78" d="M-596.476,40.977h-7.962v-0.539c2.083,0,2.516-0.927,2.516-1.759V23.197h-2.059
				c-2.123,0-3.435,0-4.064,3.671h-0.691l0.174-4.87h16.214l0.171,4.87h-0.684c-0.623-3.671-1.95-3.671-4.073-3.671h-2.059v15.482
				c0,0.832,0.432,1.759,2.516,1.759"/>
			<path id="path3882" fill="#8E8B78" d="M-588.904,27.826c-3.98,0-6.215,3.075-6.215,6.903c0,3.479,2.523,6.547,6.215,6.547
				c3.995,0,6.434-3.386,6.434-7.124C-582.47,30.379-585.111,27.826-588.904,27.826 M-588.387,40.432
				c-2.74,0-4.122-3.195-4.101-7.265c0-2.509,1.105-4.49,3.23-4.49c3.283,0,4.147,4.242,4.147,6.834
				C-585.111,38.012-586.156,40.432-588.387,40.432"/>
			<path id="path3886" fill="#8E8B78" d="M-569.669,37.592c0,1.493,0.118,2.038,1.778,1.988v0.401
				c-1.124,0.336-2.66,0.843-4.038,1.295v-2.445l-0.614,0.654c-0.621,0.686-1.811,1.791-3.668,1.791
				c-2.305,0-3.369-1.588-3.369-4.064v-6.587c0-1.727-0.224-2.101-1.805-2.101v-0.393h4.239v8.973c0,1.434,0.584,2.526,2.171,2.526
				c0.768,0,1.635-0.426,2.236-0.916c0.812-0.665,0.632-1.007,0.632-2.018V30.69c0-1.791-0.168-2.133-2.099-2.165v-0.394h4.54"/>
			<path id="path3890" fill="#8E8B78" d="M-555.58,36.73c-1.191,2.475-2.795,4.546-5.748,4.546c-3.107,0-5.333-2.859-5.333-6.42
				c0-3.734,2.127-7.024,6.394-7.024c1.639,0,4.163,0.865,4.283,2.828c0,0.678-0.635,1.263-1.305,1.263
				c-0.647,0-1.279-0.636-1.279-1.263c0-1.15-0.693-1.987-2.212-1.987c-2.496,0-3.704,2.614-3.704,5.002
				c0,2.649,1.506,5.613,4.445,5.613c1.868,0,3.095-1.32,4.054-2.799"/>
			<path id="path3894" fill="#8E8B78" d="M-553.212,24.931c0-1.823-0.296-1.732-1.803-1.676v-0.54
				c0.967-0.259,1.72-0.401,2.438-0.661l1.794-0.602v8.693c0.977-1.27,2.424-2.313,4.168-2.313c2.893,0,3.603,1.676,3.603,4.865
				v5.994c0,1.262,0.435,1.77,1.803,1.89v0.395h-6.055v-0.395c1.387-0.119,1.828-0.629,1.828-1.89v-5.97
				c0-1.658-0.137-3.346-2.196-3.346c-1.613,0-2.301,0.825-3.152,1.715v7.601c0,1.262,0.431,1.77,1.815,1.89v0.395h-6.047v-0.395
				c1.374-0.119,1.803-0.629,1.803-1.89"/>
			<path id="path3898" fill="#8E8B78" d="M-539.762,36.597h0.496c0.346,2.074,1.362,4.031,3.73,4.031
				c1.244,0,2.304-0.78,2.304-2.077c0-3.02-6.531-3.136-6.531-7.2c0-2.241,1.918-3.523,4.036-3.523c0.633,0,1.17,0.166,2.127,0.509
				c0.943,0.316,0.994-0.12,1.053-0.254h0.374v3.911h-0.457c-0.518-1.99-1.239-3.518-3.146-3.518c-1.098,0-2.192,0.693-2.192,1.873
				c0,2.89,6.723,3.454,6.723,7.087c0,2.483-1.93,3.842-4.248,3.842c-0.813,0-1.284-0.199-2.072-0.426
				c-1.662-0.485-1.723-0.026-1.782,0.203h-0.413"/>
			<path id="path3902" fill="#8E8B78" d="M-525.701,36.791c0,2.13,0.301,3.513,2.081,2.794c0.431-0.172,0.792-0.515,1.075-0.863
				l0.371,0.323c-1.061,1.378-2.329,2.231-3.701,2.231c-1.891,0-2.33-1.169-2.265-3.995v-8.253h-0.864
				c-0.341,0-1.005,0.171-0.734-0.425c1.598-1.089,2.698-2.682,4.036-4.261v3.79h2.833v0.896h-2.833"/>
			<path id="path3906" fill="#8E8B78" d="M-515.588,27.826c-3.968,0-6.209,3.075-6.209,6.903c0,3.479,2.518,6.547,6.209,6.547
				c4.015,0,6.444-3.386,6.444-7.124C-509.144,30.379-511.771,27.826-515.588,27.826 M-515.064,40.432
				c-2.734,0-4.119-3.195-4.085-7.265c0-2.509,1.092-4.49,3.217-4.49c3.285,0,4.162,4.242,4.162,6.834
				C-511.771,38.012-512.811,40.432-515.064,40.432"/>
			<path id="path3910" fill="#8E8B78" d="M-506.398,31.642c0-2.185-0.249-2.152-1.801-2.069v-0.394l4.239-1.352v2.3
				c1.045-1.118,2.373-2.3,4.405-2.3c2.248,0,3.365,1.548,3.365,4.623v6.23c0,1.26,0.431,1.783,1.819,1.903v0.395h-6.064v-0.395
				c1.379-0.12,1.813-0.643,1.813-1.903v-6.167c0.019-1.675-0.148-3.168-2.189-3.168c-1.385,0-2.418,0.92-3.148,1.662v7.672
				c0,1.26,0.433,1.784,1.818,1.903v0.395h-6.057v-0.395c1.37-0.119,1.801-0.643,1.801-1.903"/>
			<path id="path3914" fill="#8E8B78" d="M-482.554,33.059c-0.091-2.984-1.951-5.232-5.048-5.232c-3.567,0-5.841,2.948-5.841,7.011
				c0,3.407,2.124,6.432,5.433,6.432c2.872,0,5.106-2.24,5.997-4.819l-0.458-0.185c-0.878,1.581-2.466,3.073-4.37,3.073
				c-3.23,0-4.616-3.554-4.635-6.279L-482.554,33.059L-482.554,33.059z M-491.382,32.163c0.252-1.835,1.139-3.337,3.139-3.337
				c1.896,0,2.681,1.657,2.763,3.337"/>
		</g>
		<g>
			<path id="path3918" fill="#8E8B78" d="M-587.514,63.674c0,0.825-0.428,1.759-2.535,1.759v0.539h7.975v-0.539
				c-2.092,0-2.512-0.933-2.512-1.759v-6.161c0.826,0.084,1.65,0.14,2.473,0.14c3.671,0,7.273-1.442,7.273-5.681
				c0-3.385-3.44-4.979-7.841-4.979h-7.234v0.539c1.972,0,2.4,0.915,2.4,1.741v14.401H-587.514z M-584.587,49.367
				c0-1.172,0.05-1.319,1.244-1.319c2.75,0,5.366,0.907,5.366,4.151c0,3.334-2.133,4.358-5.22,4.358
				c-0.458,0-0.946-0.058-1.391-0.083"/>
			<path id="path3922" fill="#8E8B78" d="M-572.046,56.721c0-2.259-0.35-2.439-2.189-1.976v-0.407l4.622-1.515v10.851
				c0,1.263,0.424,1.784,2.167,1.903v0.393h-6.789v-0.393c1.754-0.119,2.189-0.64,2.189-1.903V56.721L-572.046,56.721z
				 M-572.514,47.92c0-0.806,0.668-1.465,1.458-1.465c0.807,0,1.475,0.659,1.475,1.465c0,0.812-0.667,1.46-1.475,1.46
				C-571.845,49.381-572.514,48.732-572.514,47.92"/>
			<path id="path3926" fill="#8E8B78" d="M-555.605,61.726c-1.181,2.475-2.794,4.546-5.742,4.546c-3.105,0-5.361-2.859-5.361-6.42
				c0-3.734,2.141-7.024,6.408-7.024c1.654,0,4.172,0.865,4.278,2.828c0,0.678-0.622,1.263-1.279,1.263
				c-0.656,0-1.302-0.636-1.302-1.263c0-1.15-0.692-1.987-2.205-1.987c-2.492,0-3.698,2.614-3.698,5.002
				c0,2.649,1.482,5.613,4.447,5.613c1.854,0,3.099-1.32,4.036-2.799"/>
			<path id="path3930" fill="#8E8B78" d="M-550.51,61.786c0,2.13,0.288,3.513,2.097,2.794c0.44-0.172,0.763-0.515,1.06-0.863
				l0.368,0.323c-1.06,1.378-2.323,2.231-3.694,2.231c-1.907,0-2.338-1.169-2.286-3.995v-8.253h-0.841
				c-0.352,0-1.009,0.171-0.757-0.425c1.598-1.089,2.707-2.682,4.05-4.261v3.79h2.845v0.896h-2.845"/>
			<path id="path3934" fill="#8E8B78" d="M-534.771,62.588c0,1.493,0.107,2.038,1.773,1.988v0.401
				c-1.124,0.336-2.679,0.843-4.041,1.295v-2.445l-0.61,0.654c-0.619,0.686-1.811,1.791-3.678,1.791
				c-2.305,0-3.369-1.588-3.369-4.064v-6.587c0-1.727-0.216-2.101-1.79-2.101v-0.393h4.238v8.973c0,1.434,0.582,2.526,2.154,2.526
				c0.783,0,1.643-0.426,2.234-0.916c0.821-0.665,0.65-1.007,0.65-2.018v-6.006c0-1.791-0.174-2.133-2.102-2.165v-0.394h4.54"/>
			<path id="path3938" fill="#8E8B78" d="M-529.708,57.426c0-2.756-0.43-3.099-2.155-2.616v-0.457l4.588-1.524v2.598
				c0.575-0.986,1.84-2.598,3.286-2.598c1.089,0,1.763,0.667,1.59,1.905c-0.088,0.589-0.583,0.889-1.18,0.889
				c-1.004,0-1.198-1.014-1.916-1.014c-0.569,0-1.782,1.408-1.782,2.24v6.839c0,1.25,0.431,1.77,2.162,1.892v0.393h-6.75V65.58
				c1.725-0.122,2.156-0.642,2.156-1.892"/>
			<path id="path3942" fill="#8E8B78" d="M-511.439,58.055c-0.088-2.984-1.949-5.232-5.05-5.232c-3.551,0-5.833,2.948-5.833,7.011
				c0,3.407,2.128,6.432,5.433,6.432c2.87,0,5.104-2.24,6.006-4.819l-0.482-0.185c-0.872,1.581-2.465,3.073-4.354,3.073
				c-3.234,0-4.613-3.554-4.633-6.279L-511.439,58.055L-511.439,58.055z M-520.283,57.159c0.263-1.835,1.156-3.337,3.154-3.337
				c1.907,0,2.688,1.657,2.762,3.337"/>
			<path id="path3946" fill="#8E8B78" d="M-509.222,61.593h0.501c0.338,2.074,1.349,4.031,3.725,4.031
				c1.244,0,2.288-0.78,2.288-2.077c0-3.02-6.514-3.136-6.514-7.2c0-2.241,1.897-3.523,4.027-3.523c0.62,0,1.185,0.166,2.125,0.509
				c0.934,0.316,0.998-0.12,1.055-0.254h0.378v3.911h-0.474c-0.501-1.99-1.221-3.518-3.136-3.518c-1.098,0-2.187,0.693-2.187,1.873
				c0,2.89,6.735,3.454,6.735,7.087c0,2.483-1.942,3.842-4.259,3.842c-0.811,0-1.306-0.199-2.08-0.426
				c-1.675-0.485-1.711-0.026-1.77,0.203h-0.413"/>
		</g>
		<path id="path3950" fill="#15569B" d="M-546.66,16.158c13.696,0,23.02-9.045,23.02-20.026c0-4.117-1.682-8.242-4.079-11.537
			c-0.081-0.089-19.276,21.449-20.983,23.367c-1.801,2.032-4.303,5.125-4.329,4.362c-0.023-1.281,0.847-1.461,2.285-3.785
			c0.283-0.424-0.038-1.244,0.248-1.683c2.082-3.25,4.137-6.704,3.827-6.977c-0.923-0.852-7.281,8.545-7.974,8.07
			c-0.943-0.654,2.126-3.296,2.109-3.853c-0.028-0.312-0.471-0.631-0.515-0.927c-0.191-1.208,3.33-4.122,3.054-3.994
			c-0.25,0.114,3.191-3.76,4.063-4.415c0.592-0.445,1.843-0.724,1.64-0.615c-0.235,0.12,3.513-2.19,3.31-2.09
			c-0.743,0.364,2.593-3.808,2.201-4.056c-0.533-0.305-4.974,4.89-5.422,5.08c-1.03,0.437,4.284-7.094,4.357-7.245
			c3.252-7.036-5.571,3.822-6.092,3.352c-2.359-2.083,8.762-7.099,4.648-9.771c-2.235-1.45,0.35-3.183-0.56-3.403
			c-2.016-0.49-2.863-0.515-5.133-0.515c-13.679,0-23.354,9.505-23.354,20.478C-570.336,6.951-560.339,16.158-546.66,16.158"/>
		<path id="path3954" fill="#FCD213" d="M-542.775-8.726c0.386-0.584,1.2-1.435,2.319-2.769c0.843-0.782,1.818-1.728,1.961-2.146
			c0.491-1.01-1.875,0.387-0.646-1.022c0.048-0.191,0.406-0.019,0.543-0.247c0.485-0.268,1.941-3.246,2.427-3.652
			c1.152-1.244-0.948,2.269-0.462,2.555c0.136,0.29,0.406-0.403,1.197-0.979c0,0,0.041-0.204,0.146-0.286
			c0.093,0,0.093,0.253,0.093,0.083l0.543-0.693c0.119-0.17,1.095-1.384,1.095-1.384c0.287-0.311,0.8-0.654,1.126-1.124
			c0,0,1.492-1.124,1.492-1.5l0.785-0.691c0.193-0.089,0.634-0.691,0.946-0.691l-0.062-0.091c0.182,0.114,1.258-1.239,1.606-1.581
			c-0.108-0.304,0.02,0.286,0.094,0.286c0.07,0,0.163-0.02,0.678-1.328l0.061,0.058c0,0,0.334-0.489,0.397-0.798
			c0,0,0.085-0.153,0.225-0.3c0.241-0.026,0.199-1.62,0.413-1.999c0.079-0.281,0.045,0.576,0.477,0.387
			c0.282-0.133,1.094-1.214,1.202-1.555c0.1-0.61-0.034-1.125,0.449-1.532c0.187-0.214,0.394,0.388,1.072-0.413
			c0.894-1.187,2.138-1.608,1.433-2.382c-0.108-0.196,0.263-0.66,0.561-0.971c0.145-0.204,0.063-0.673,0.184-1.08
			c0.312-0.577-1.586,0-1.965,0.387c-0.512,0.647-3.899,4.889-4.887,5.748c-1.207,1.37-2.495,2.812-3.826,3.815
			c-0.874,0.723,0.332,1.187,0.235,1.282c-0.499,0.108-1.479,0.902-1.803,1.234l-0.2,0.596c-0.039-0.031-0.056,0.145-0.056,0.145
			c-0.293,0.553-1.128,0.668-1.188,1.472l-0.587,0.65l-0.801,0.997c-0.229,0.323-0.62-0.091-0.825,0.494
			c-0.203,0.5-0.905,0.92-0.905,0.92c-0.48,0.35,0.463-1.288,0.463-1.288c-0.086-0.037-0.451-0.07-1.209,0.706
			c-0.116,0.374-1.788,2.266-1.788,2.216c-0.348,0.228,0.489,0.209,0.189,0.482l-0.309-0.006c-0.23,0.571-0.164-0.122-0.392,0.476
			c-0.084-0.019-0.446,0.882-0.571,0.939c-0.407-0.228-3.913,4.756-4.617,4.433c-0.219,0,4.324-5.474,4.302-5.555
			c0.074-0.186,0.218-0.223,0.218-0.223l0.203-0.139c0.416-0.623,0.496-0.844,1.084-1.423c0.276-0.261,0.339-0.843,0.716-0.96
			c0,0,1.112-0.635,1.085-0.793c0.316-0.013,1.219-1.904,1.574-1.784c0,0,0.65-0.401,0.988-1.403c0,0,0.49-0.495,0.49-0.821
			c-0.06-0.507-0.397-0.162-0.324-0.665c0,0,0.471-0.623,0.68-0.743c0,0,1.225-1.728,1.412-1.486
			c0.189,0.248,0.105,0.687,0.105,0.687c0.337,0.139,0.888-0.852,1.198-0.966c0,0,0.338-0.952,0.987-1.353l0.222-0.482
			c0.104-0.465-1.233,0.671-1.401,0.532c-0.225-0.382-1.674,0.966-2.478,2.171c-0.439,0.864-0.309-0.804-0.919-0.265
			c0,0-2.232,1.924-2.149,2.762c-0.164,0.228-0.505,0.59-0.441,0.851c-0.416,0.521-0.587,1.256-1.184,1.256l-2.534,2.515
			l-1.329,1.562c-0.092,0.171-0.988,0.337-1.153,0.42c-0.389,0.819-0.975,0.564-1.423,1.29l-0.879,0.83
			c-0.259,0.712-0.532,1.041-0.692,0.838c0.05,0.318-0.678,0.345-0.64,0.846l-0.063-0.094c-0.169,0.112,0.092,0.426-0.204,0.229
			c-0.406,0.341-0.864,0.615-1.181,1.155c-0.028-0.026-0.089-0.045-0.089-0.108l-0.683,0.737c-0.989,0.755-1.445,1.91-2.291,2.494
			c-0.35,0.94-1.593,1.761-2.342,2.616c-0.686,0.751-1.365,1.391-0.882,1.633c0.545-0.331,1.251-1.372,1.416-1.213
			c0.155-0.056-0.164,0.431,0.026,0.47c-0.097,0.348-0.047,0.785,0.483,0.379c0.519-0.398,1.262-1.312,1.454-1.542
			c0.619-0.209,0.178,0.484,0.334,0.387l0.227,0.07c0.29-0.12,1.033-0.883,1.578-1.474c1.132-1.307,0.826-0.329,1.175-0.642
			l0.199-0.12c1.423,0.495,1.698-1.701,2.999-1.606c-0.286,1.15-2.091,2.598-1.801,3.098c0.133,0.313,1.635-0.78,1.695-0.838
			c0.55-0.291,1.175-0.977,2.286-1.467C-543.404-9.209-543.148-8.541-542.775-8.726"/>
		<path id="path3958" fill="#FCD213" d="M-536.659-9.488c-0.403,0.356-0.497-0.318-0.497-0.318l-1.434,2.336l-3.177,4.469
			c0,0-4.137,5.341-3.972,5.584c0.381,0.526,2.022-1.645,1.684-0.585c-0.082,0.223-1.92,1.911-2.257,2.114
			c-0.344,0.21-0.346,0.294-0.489,0.578c-0.153,0.293-0.518,0.751-0.776,1.048c-0.227,0.3-0.411,0.54-0.411,0.54
			s-0.383-0.343-0.933-0.043c-0.298,0.366-1.718,2.544-1.958,2.305c-0.263-0.267,0-1.2,1.15-3.029
			c-0.864-0.629-2.157,1.707-2.157,1.718c0.018-0.042-1.73,0.318-1.749,0.294c-0.122,0.171-0.449,0.438-0.449,0.438
			c-0.165,0.426-0.591,0.342-0.741,0.537c0.182,0.287-0.549,0.532-0.549,0.607l-0.089-0.051c-0.092,0.033-0.052,0.108-0.052,0.202
			c-0.092,0-0.156-0.03-0.203,0.058c-0.11,0.336-0.365,0.165-0.563,0.427c0.013-0.051-0.037-0.114-0.07-0.141
			c-0.058,0.05-0.058-0.399-0.346-0.063l-0.051-0.337l-0.157,0.114c-0.069-0.227,0.495-1.16,0.699-1.586l0.344-0.383l0.344-0.285
			c-0.068-0.406,0.276-0.223,0.164-0.654c0.518-0.171,0.438-0.235,0.528-0.768c0.253,0.044,0.082-0.369,0.149-0.337
			c-0.365-0.173,0.451-0.229,0.104-0.552c0.238-0.49,0.728-0.656,0.834-1.177c0.103,0.053,0.122,0.172,0.213,0.142
			c0.231-0.679,0.316-1.759,0.921-2.127c-0.109-0.559,0.709-0.832,0.743-1.277c0.265-0.081,0.962-0.691,1.343-1.097l0.054,0.064
			c0.314-0.807,0.747-1.616,1.59-1.792c0.279,0.176,1.877,0.273,1.918-0.097c0.209-0.438-1.68-0.869-1.178-0.813
			c-0.041-0.323,0.721-1.052,0.838-1.453c0.515-0.315,1.178-1.281,1.797-1.192l0.235,0.621c0.143,0.039,0.41,0.256,0.761,0.058
			l0.665-0.678c-0.207,0.056-0.37-0.484-1.235-0.11c0-0.399-0.162-0.685,0.133-1.053l0.206-0.186
			c0.203-0.462,0.979-0.374,1.124-0.78l0.204,1.206l1.609-0.596c1.206-0.928,0.614-2.057,2.036-3.391l0.631-0.153
			c0.524-0.42,0.815-1.172,1.48-1.314c0.411-0.462,1.314-1.665,1.855-1.461c-0.026,0.23-2.736,3.79-2.38,4.567
			c0.482-0.456,4.521-6.142,5.271-5.772c0.373,0.552-1.695,2.463-1.782,2.928c1.469-0.985-1.602,1.962-1.602,1.962
			S-536.268-9.817-536.659-9.488"/>
		<path id="path3962" fill="#FCD213" d="M-540.456-25.45c-0.332,0.406,2.725-3.137,3.046-3.187c0,0,0.312-0.553,0.734-0.882
			c0.413-0.332-0.218,1.055-0.188,1.077c0.691,0.457,1.115-1.82,1.665-2.285c0.448-0.081,0.881-0.799,0.881-0.799
			c0.375-0.412,0.122-0.481,0.61-0.888c0,0.057,0.182-0.325,0.257-0.3c0.609-0.838,0.487-0.4,1.251-1.199
			c0.635-0.42,0.037,0.273,0.013,0.591c-0.323,0.374-0.559,1.149-0.645,1.093c-0.333,0.813-0.427,1.415-0.796,1.497
			c0.109,0.666,0.109,0.026-0.717,0.971c-0.626,0.991-0.76,1.175-1.439,1.949c-0.19,0.622-0.397,0.497-0.777,1.219l-1.225,1.124
			c-0.366,0.495-0.469,0.147-1.595,1.885c-0.357,0.541-1.408,2.165-1.844,2.032c-0.16,0.204-1.966,2.872-2.126,2.655
			c-0.843-1.111-2.046,3.187-3.023,2.527c0.542-1.821-1.268,0.92-2.057,0.267l0.505-0.864c-0.031-0.178,0.768-0.743,0.768-0.743
			c-0.004,0.025,0.485-0.298,0.45-0.286c0,0,0.548-0.989,0.848-1.295c0,0.075,0.398-0.147,0.398-0.147
			c-0.056-0.674,0.783-1.066,0.906-1.04c0.339-0.237,0.11-0.726,0.637-0.7l0.128-0.107c0.129-0.643,1.174-1.622,1.174-1.622
			S-540.113-25.857-540.456-25.45"/>
		<path id="path3966" fill="#FCD213" d="M-534.683-10.409c1.672-2.196,2.091-3.421,3.731-4.482c0.487-1.041,1.473-1.587,2.281-2.427
			c0.06-0.106,1.778-2.176,2.061-1.815c0.283,0.36-1.429,2.596-1.429,2.596h-0.082c0.024,0.433-0.324,0.28-0.49,0.895l-0.06-0.093
			c-0.05,0.406-0.402,0.342-0.55,0.647c0.027-0.07-0.024-0.101-0.085-0.154c-0.497,0.426-0.921,1.367-1.393,1.728l-0.398,0.699
			c0.44,0.114,0.632,0.109,0.537,0.393c-0.193,0.345-0.563,0.331-0.857,0.954l-0.382,0.9c0,0-0.322,0.749-0.473,0.8
			c-0.173,0.07-0.161-0.139-0.161-0.139c-0.159,0.551-0.961-0.058-1.027,0.551c-0.245,0.025-0.545,1.193-0.841,1.453
			c0.028-0.062-0.583,0.484-0.583,0.484l-0.241,0.527c-0.217,0.293-0.252-0.209-0.668,0.52c-0.433,0.034-0.308,0.477-0.53,0.186
			c-0.323,0.487-2.045,1.612-2.598,1.707c-0.218-0.814,1.223-3.379,1.731-3.995"/>
	</g>
</g>
</svg>
