<?xml version="1.0" encoding="utf-8"?>
<!-- Generator: Adobe Illustrator 16.0.0, SVG Export Plug-In . SVG Version: 6.00 Build 0)  -->
<!DOCTYPE svg PUBLIC "-//W3C//DTD SVG 1.1//EN" "http://www.w3.org/Graphics/SVG/1.1/DTD/svg11.dtd">
<svg version="1.1" id="Layer_1" xmlns="http://www.w3.org/2000/svg" xmlns:xlink="http://www.w3.org/1999/xlink" x="0px" y="0px"
	 width="440px" height="40px" viewBox="87.729 91.674 440 40" enable-background="new 87.729 91.674 440 40" xml:space="preserve">
<g id="Layer_2">
</g>
<g id="Layer_1_1_">
	<g>
		<path fill="#334780" d="M158.262,118.16h-10.309c-1.938,0-3.511-1.096-3.511-2.436v-13.726h-9.906v13.726
			c0,3.107,3.628,5.625,8.102,5.625h15.624v9.303h9.907V102h-9.907V118.16z"/>
		<path fill="#334780" d="M203.64,101.999h-15.625v-9.3h-9.902v28.654h25.527c4.474,0,8.102-2.521,8.102-5.621v-8.105
			C211.741,104.516,208.113,101.999,203.64,101.999z M201.837,115.729c0,1.34-1.572,2.437-3.51,2.437h-10.312v-12.979h10.312
			c1.938,0,3.51,1.096,3.51,2.442V115.729z"/>
		<path fill="#334780" d="M221.681,107.622v8.104c0,3.104,3.628,5.623,8.102,5.623h25.531v-3.189H235.1
			c-1.938,0-3.513-1.096-3.513-2.434v-8.104c0-1.343,1.572-2.435,3.513-2.435h20.214v-3.186h-25.531
			C225.309,101.999,221.681,104.514,221.681,107.622z"/>
		<path fill="#334780" d="M90.966,107.622v8.104c0,3.104,3.628,5.623,8.102,5.623h25.529v-3.189h-20.215
			c-1.938,0-3.51-1.096-3.51-2.434v-8.104c0-1.343,1.573-2.435,3.51-2.435h20.215v-3.186h-25.53
			C94.594,101.999,90.966,104.514,90.966,107.622z"/>
		<rect x="236.794" y="110.081" fill="#334780" width="9.906" height="3.185"/>
		<rect x="327.017" y="103.361" fill="#334780" width="4.993" height="9.906"/>
		<rect x="447.286" y="92.695" fill="#334780" width="9.907" height="28.658"/>
		<path fill="#334780" d="M471.015,107.645c0,1.338-1.562,2.428-3.493,2.431h-8.168v3.186h8.149c1.938,0,3.512,1.099,3.512,2.438
			v5.643h9.904v-5.643c0-1.579-0.945-3.007-2.459-4.03c1.514-1.016,2.459-2.441,2.459-4.023v-5.646h-9.904V107.645z"/>
		<path fill="#334780" d="M514.587,101.999v16.161h-10.311c-1.941,0-3.509-1.096-3.509-2.436v-13.726h-9.907v13.726
			c0,3.107,3.627,5.625,8.1,5.625h15.627v9.303h9.904V102L514.587,101.999L514.587,101.999z"/>
		<path fill="#334780" d="M403.713,107.618v8.104c0,3.104,3.628,5.625,8.104,5.625h25.526v-3.188h-20.216
			c-1.936,0-3.51-1.099-3.51-2.438v-8.104c0-1.342,1.574-2.432,3.51-2.432h20.216v-3.185h-25.526
			C407.341,101.999,403.713,104.511,403.713,107.618z"/>
		<path fill="#334780" d="M340.302,115.725c0,1.344-1.576,2.439-3.512,2.439h-14.545c-1.939,0-3.509-1.1-3.509-2.439v-13.726h-9.905
			v13.726c0,3.107,3.629,5.625,8.1,5.625h25.167c4.473,0,8.102-2.519,8.102-5.625h0.003v-13.726h-9.903L340.302,115.725
			L340.302,115.725z"/>
		<path fill="#334780" d="M385.671,102h-17.428c-4.474,0-8.101,2.512-8.101,5.622v8.099c0,3.104,3.627,5.62,8.101,5.62h17.428
			c4.478,0,8.104-2.521,8.104-5.62v-8.099C393.775,104.516,390.146,102,385.671,102z M383.87,115.723
			c0,1.34-1.573,2.438-3.515,2.438h-6.799c-1.936,0-3.51-1.098-3.51-2.438v-8.101c0-1.347,1.574-2.437,3.51-2.437h6.799
			c1.94,0,3.515,1.095,3.515,2.437V115.723z"/>
		<path fill="#334780" d="M273.354,101.999c-4.473,0-8.1,2.512-8.1,5.619v13.731h9.906v-13.731c0-1.345,1.568-2.437,3.509-2.437
			h20.214v-3.183H273.354z"/>
	</g>
</g>
</svg>
