<?xml version="1.0" encoding="utf-8"?>
<!-- Generator: Adobe Illustrator 16.0.0, SVG Export Plug-In . SVG Version: 6.00 Build 0)  -->
<!DOCTYPE svg PUBLIC "-//W3C//DTD SVG 1.1//EN" "http://www.w3.org/Graphics/SVG/1.1/DTD/svg11.dtd">
<svg version="1.1" id="Layer_1" xmlns="http://www.w3.org/2000/svg" xmlns:xlink="http://www.w3.org/1999/xlink" x="0px" y="0px"
	 width="440px" height="40px" viewBox="0 0 440 40" enable-background="new 0 0 440 40" xml:space="preserve">
<g id="Layer_2">
</g>
<g id="Layer_1_1_">
	<g>
		<path fill="#334780" d="M70.533,26.486H60.225c-1.938,0-3.511-1.096-3.511-2.436V10.324h-9.906v13.727
			c0,3.106,3.628,5.625,8.102,5.625h15.624v9.303h9.907V10.326h-9.907V26.486z"/>
		<path fill="#334780" d="M115.912,10.325h-15.625v-9.3h-9.902V29.68h25.527c4.474,0,8.102-2.521,8.102-5.621v-8.105
			C124.013,12.842,120.385,10.325,115.912,10.325z M114.108,24.055c0,1.34-1.572,2.438-3.51,2.438h-10.312V13.514h10.312
			c1.938,0,3.51,1.096,3.51,2.441V24.055z"/>
		<path fill="#334780" d="M133.953,15.948v8.104c0,3.104,3.627,5.623,8.102,5.623h25.531v-3.189h-20.215
			c-1.938,0-3.513-1.096-3.513-2.434v-8.104c0-1.343,1.572-2.435,3.513-2.435h20.215v-3.187h-25.531
			C137.58,10.325,133.953,12.84,133.953,15.948z"/>
		<path fill="#334780" d="M3.237,15.948v8.104c0,3.104,3.628,5.623,8.102,5.623h25.529v-3.189H16.653
			c-1.938,0-3.51-1.096-3.51-2.434v-8.104c0-1.343,1.573-2.435,3.51-2.435h20.215v-3.187h-25.53
			C6.865,10.325,3.237,12.84,3.237,15.948z"/>
		<rect x="149.065" y="18.407" fill="#334780" width="9.906" height="3.185"/>
		<rect x="239.289" y="11.688" fill="#334780" width="4.992" height="9.906"/>
		<rect x="359.558" y="1.021" fill="#334780" width="9.907" height="28.658"/>
		<path fill="#334780" d="M383.286,15.971c0,1.338-1.562,2.429-3.493,2.432h-8.168v3.186h8.149c1.938,0,3.512,1.1,3.512,2.438v5.643
			h9.904v-5.643c0-1.579-0.945-3.007-2.459-4.03c1.514-1.016,2.459-2.441,2.459-4.023v-5.646h-9.904V15.971z"/>
		<path fill="#334780" d="M426.858,10.325v16.161h-10.311c-1.941,0-3.51-1.096-3.51-2.436V10.324h-9.906v13.727
			c0,3.106,3.627,5.625,8.1,5.625h15.627v9.303h9.904V10.326L426.858,10.325L426.858,10.325z"/>
		<path fill="#334780" d="M315.984,15.944v8.104c0,3.104,3.628,5.625,8.104,5.625h25.525v-3.188h-20.216
			c-1.936,0-3.51-1.099-3.51-2.438v-8.104c0-1.342,1.574-2.432,3.51-2.432h20.216v-3.186h-25.525
			C319.612,10.325,315.984,12.837,315.984,15.944z"/>
		<path fill="#334780" d="M252.573,24.051c0,1.344-1.575,2.439-3.512,2.439h-14.545c-1.938,0-3.509-1.1-3.509-2.439V10.325h-9.905
			v13.726c0,3.107,3.629,5.625,8.101,5.625h25.166c4.473,0,8.103-2.519,8.103-5.625h0.003V10.325h-9.903L252.573,24.051
			L252.573,24.051z"/>
		<path fill="#334780" d="M297.942,10.326h-17.428c-4.474,0-8.101,2.512-8.101,5.622v8.099c0,3.104,3.627,5.62,8.101,5.62h17.428
			c4.478,0,8.104-2.521,8.104-5.62v-8.099C306.047,12.842,302.418,10.326,297.942,10.326z M296.142,24.049
			c0,1.34-1.573,2.438-3.515,2.438h-6.799c-1.937,0-3.511-1.099-3.511-2.438v-8.101c0-1.347,1.574-2.437,3.511-2.437h6.799
			c1.939,0,3.515,1.095,3.515,2.437V24.049z"/>
		<path fill="#334780" d="M185.625,10.325c-4.473,0-8.1,2.512-8.1,5.619v13.731h9.906V15.944c0-1.345,1.568-2.437,3.509-2.437
			h20.214v-3.184L185.625,10.325L185.625,10.325z"/>
	</g>
</g>
</svg>
