<?xml version="1.0" encoding="utf-8"?>
<!-- Generator: Adobe Illustrator 16.0.0, SVG Export Plug-In . SVG Version: 6.00 Build 0)  -->
<!DOCTYPE svg PUBLIC "-//W3C//DTD SVG 1.1//EN" "http://www.w3.org/Graphics/SVG/1.1/DTD/svg11.dtd">
<svg version="1.1" id="Layer_1" xmlns="http://www.w3.org/2000/svg" xmlns:xlink="http://www.w3.org/1999/xlink" x="0px" y="0px"
	 width="162px" height="160px" viewBox="0 0 162 160" enable-background="new 0 0 162 160" xml:space="preserve">
<g id="Layer_2">
</g>
<g id="Layer_1_1_">
	<g>
		<path fill="#F5F7FA" d="M81.006,80c-22.091,0-39.759-18.658-39.759-40.75C41.248,17.158,59.166,0,81.256,0
			c44.183,0,79.509,35.567,79.509,79.75c0,44.183-35.816,80.25-80,80.25c22.091,0,40-17.158,40-39.25S103.098,80,81.006,80z"/>
		<path fill="#131722" d="M80.994,80c22.092,0,39.76,18.658,39.76,40.75S102.836,160,80.744,160c-44.183,0-79.51-35.567-79.51-79.75
			c0-44.183,35.817-80.25,80-80.25c-22.091,0-40,17.158-40,39.25C41.234,61.342,58.904,80,80.994,80z"/>
	</g>
	<circle fill="#131722" cx="81" cy="39" r="10"/>
	<circle fill="#F5F7FA" cx="80" cy="120" r="10"/>
</g>
</svg>
